<svg xmlns="http://www.w3.org/2000/svg" version="1.1" viewBox="-5.0 -10.0 110.0 135.0">
 <path d="m79.902 54.168c0.12891-0.44531 0.25391-0.89453 0.37109-1.3477 0.37891-1.4844 0.67187-2.9922 0.87109-4.5117 1.375-10.441-1.6133-20.457-7.5586-28.203-5.9414-7.7422-14.84-13.223-25.281-14.594-10.441-1.375-20.457 1.6133-28.203 7.5586-7.7422 5.9414-13.219 14.84-14.594 25.281-1.375 10.441 1.6133 20.457 7.5586 28.203 5.9414 7.7422 14.84 13.223 25.281 14.598 3.2461 0.42578 6.4531 0.42969 9.5742 0.054687 2.1367-0.25781 4.2227-0.69141 6.2461-1.293 0.19141-0.058593 0.39453 0.03125 0.48438 0.21094 0.18359 0.36719 0.38281 0.72656 0.58984 1.082 0.066406 0.11328 0.074218 0.23828 0.027343 0.35938s-0.13672 0.20703-0.26172 0.24609c-2.2148 0.67578-4.5039 1.1602-6.8477 1.4414-3.2695 0.39453-6.6484 0.38672-10.078-0.0625-11.008-1.4492-20.383-7.2227-26.648-15.383-6.2617-8.1602-9.4102-18.711-7.9609-29.715 1.4492-11.008 7.2227-20.383 15.383-26.648 8.1602-6.2617 18.711-9.4102 29.715-7.9609 11.008 1.4492 20.383 7.2227 26.648 15.383 6.2617 8.1602 9.4102 18.711 7.9609 29.715-0.21484 1.6367-0.52344 3.2266-0.91406 4.7539-0.14453 0.5625-0.30078 1.1211-0.46875 1.6797-0.039063 0.125-0.12109 0.21484-0.24219 0.26562-0.12109 0.046875-0.24609 0.039062-0.35938-0.027344-0.35547-0.20703-0.71484-0.40625-1.082-0.58984-0.17969-0.10547-0.26562-0.30469-0.21094-0.49609zm7.8555 30.773c-0.30078-0.26562-0.75391-0.25-1.0391 0.035156l-0.14453 0.14453-2.0273-2.0273c2.7148-3.0586 4.3672-7.082 4.3672-11.496 0-4.7812-1.9375-9.1094-5.0703-12.242-3.1328-3.1328-7.4609-5.0703-12.242-5.0703s-9.1094 1.9375-12.242 5.0703c-3.1328 3.1328-5.0703 7.4609-5.0703 12.242s1.9375 9.1094 5.0703 12.242c3.1328 3.1328 7.4609 5.0703 12.242 5.0703 4.4102 0 8.4375-1.6484 11.496-4.3672l2.0273 2.0273-0.14453 0.14453c-0.28516 0.28516-0.29688 0.73828-0.035157 1.0391l7.2773 8.3008c0.99609 1.1367 2.8047 1.0352 3.8398 0 1.0547-1.0547 1.1211-2.8555 0-3.8398zm-21.766-12.75 3.0195 3.4688c0.37109 0.42969 1.0234 0.47266 1.4531 0.10156 0.039062-0.035157 0.074218-0.070313 0.10547-0.10938l6.5898-6.7148c0.39844-0.40234 0.39062-1.0547-0.011718-1.4531-0.40234-0.39844-1.0547-0.39062-1.4531 0.011719l-5.8633 5.9766-2.2891-2.6328c-0.37109-0.42969-1.0234-0.47266-1.4531-0.10156-0.42578 0.37109-0.47266 1.0234-0.097656 1.4531zm-9.6523-0.59375c0 4.2148 1.707 8.0273 4.4688 10.789 2.7617 2.7617 6.5742 4.4688 10.789 4.4688s8.0273-1.707 10.789-4.4688 4.4688-6.5742 4.4688-10.789-1.707-8.0273-4.4688-10.789c-2.7617-2.7617-6.5742-4.4688-10.789-4.4688s-8.0273 1.707-10.789 4.4688c-2.7578 2.7617-4.4688 6.5781-4.4688 10.789zm7.0586-17.102c-2.7266-8.3867-10.605-14.453-19.902-14.453-11.414 0-20.695 9.1445-20.918 20.504-0.003906 0.11328 0.039063 0.21484 0.11719 0.29688 0.082032 0.082031 0.17969 0.125 0.29297 0.125h32.906c0.67188-0.98828 1.4375-1.918 2.2969-2.7812 1.5312-1.5312 3.293-2.7734 5.207-3.6914zm-19.906-36.949c-4.9844 0-9.0273 4.043-9.0273 9.0273s4.043 9.0273 9.0273 9.0273c4.9844 0 9.0273-4.043 9.0273-9.0273 0.003907-4.9844-4.0391-9.0273-9.0273-9.0273z" fill-rule="evenodd"/>
<text x="0.0" y="117.5" font-size="5.0" font-weight="bold" font-family="Arbeit Regular, Helvetica, Arial-Unicode, Arial, Sans-serif" fill="#000000">Created by Naya Putri</text><text x="0.0" y="122.5" font-size="5.0" font-weight="bold" font-family="Arbeit Regular, Helvetica, Arial-Unicode, Arial, Sans-serif" fill="#000000">from Noun Project</text></svg>