<svg xmlns="http://www.w3.org/2000/svg" xmlns:xlink="http://www.w3.org/1999/xlink" version="1.1" x="0px" y="0px" viewBox="0 0 33 41.25" enable-background="new 0 0 33 33" xml:space="preserve"><path d="M16.524,32.5h-0.031h-0.002c-0.658,0-1.273-0.139-1.842-0.41C4.7,27.289,2.786,14.24,2.425,8.852  C2.329,7.424,2.972,6.316,4.278,5.65c1.566-0.793,8.258-3.766,10.271-4.656C14.962,0.811,15.655,0.5,16.425,0.5h0.152  c0.771,0,1.492,0.322,1.879,0.496c2.01,0.889,8.701,3.861,10.264,4.652c1.313,0.668,1.953,1.775,1.857,3.205  c-0.361,5.387-2.275,18.436-12.223,23.234C17.784,32.361,17.169,32.5,16.524,32.5z M16.425,2.818c-0.275,0-0.703,0.189-0.936,0.293  C13.487,4,6.841,6.951,5.327,7.717c-0.531,0.271-0.617,0.555-0.59,0.98C5.071,13.68,6.802,25.73,15.653,30  c0.254,0.123,0.525,0.184,0.824,0.184h0.047c0.299,0,0.57-0.061,0.826-0.186c8.848-4.268,10.58-16.318,10.912-21.301  c0.029-0.428-0.057-0.709-0.592-0.982C26.161,6.951,19.515,4,17.515,3.113c-0.234-0.105-0.66-0.295-0.938-0.295H16.425z"/><path d="M19.661,23.383h-6.322l0.852-6.281c-1.078-0.734-1.787-1.973-1.787-3.383c0-2.262,1.832-4.102,4.096-4.102  c2.266,0,4.1,1.84,4.1,4.102c0,1.41-0.711,2.648-1.791,3.383L19.661,23.383z"/><text x="0" y="48" fill="#000000" font-size="5px" font-weight="bold" font-family="'Helvetica Neue', Helvetica, Arial-Unicode, Arial, Sans-serif">Created by Minh Do</text><text x="0" y="53" fill="#000000" font-size="5px" font-weight="bold" font-family="'Helvetica Neue', Helvetica, Arial-Unicode, Arial, Sans-serif">from the Noun Project</text></svg>