<svg xmlns:x="http://ns.adobe.com/Extensibility/1.0/" xmlns:i="http://ns.adobe.com/AdobeIllustrator/10.0/" xmlns:graph="http://ns.adobe.com/Graphs/1.0/" xmlns="http://www.w3.org/2000/svg" xmlns:xlink="http://www.w3.org/1999/xlink" xmlns:a="http://ns.adobe.com/AdobeSVGViewerExtensions/3.0/" version="1.1" x="0px" y="0px" viewBox="0 0 100 125" style="enable-background:new 0 0 100 100;" xml:space="preserve"><style type="text/css">

	.st0{fill-rule:evenodd;clip-rule:evenodd;}

</style><path class="st0" d="M27.542,60.23L20.55,84.877c-0.597,2.034-2.721,3.229-4.756,2.654l-4.292-1.218l3.584-12.609  c0.154-0.576-0.2-1.194-0.797-1.372c-0.575-0.177-1.194,0.178-1.372,0.774L9.333,85.694l-4.292-1.216l8.053-28.342L27.542,60.23z   M58.249,26.247c-0.089-0.619,0.354-1.172,0.974-1.238c0.619-0.089,1.172,0.354,1.238,0.975l1.904,15.332  c0.066,0.396-0.111,0.773-0.399,0.994L44.953,57.687c-0.465,0.419-1.172,0.376-1.593-0.09c-0.42-0.465-0.376-1.172,0.089-1.57  l16.614-15.021L58.249,26.247z M61.258,9.346c17.722,0,32.102,14.38,32.102,32.101c0,7.235-2.39,13.916-6.438,19.293  c-0.045,0.022-0.09,0.065-0.156,0.088l-16.372,7.876c-0.353-0.311-0.729-0.598-1.127-0.818c11.018-3.317,19.115-13.34,19.602-25.31  h-5.221c-0.621,0-1.107-0.509-1.107-1.129c0-0.619,0.486-1.127,1.107-1.127h5.221C88.293,25.96,76.745,14.412,62.386,13.837v5.221  c0,0.62-0.509,1.128-1.128,1.128c-0.619,0-1.128-0.508-1.128-1.128v-5.221C45.772,14.412,34.223,25.96,33.647,40.319h5.221  c0.62,0,1.106,0.508,1.106,1.127c0,0.62-0.486,1.129-1.106,1.129h-5.221c0.243,6.106,2.478,11.681,6.04,16.15  c-1.593,0.199-3.141,0.643-4.602,1.306c-3.739-5.244-5.93-11.66-5.93-18.585C29.156,23.726,43.515,9.346,61.258,9.346L61.258,9.346z   M60.13,67.465v-3.606c0-0.643,0.509-1.127,1.128-1.127c0.62,0,1.128,0.484,1.128,1.127v3.562L60.13,67.465z M23.337,83.261  l5.443-19.137l3.96,0.087c3.362-2.963,7.986-4.069,12.323-2.963c3.008,0.773,5.619,2.566,7.456,4.978  c1.726,2.323,4.226,3.539,7.124,3.495l7.367-0.154c1.924-0.022,3.097,2.279,3.605,3.495c0.598,1.394,0.288,3.01-0.773,4.115  c-1.085,1.128-2.124,1.15-3.541,1.195l-19.601,0.354c-0.62,0-1.107,0.51-1.107,1.127c0.022,0.621,0.531,1.13,1.151,1.107  l20.31-0.377c0.089,0,0.177,0,0.266,0c1.614-0.065,3.074-0.773,4.137-1.857c1.681-1.747,2.168-4.313,1.239-6.526  c-0.243-0.599-0.597-1.15-1.018-1.638l16.216-7.765c4.049-2.766,9.005,2.146,6.283,6.238L67.983,88.881  c-2.189,1.636-4.756,2.168-7.411,1.481l-28.76-7.301L23.337,83.261z"/><text x="0" y="115" fill="#000000" font-size="5px" font-weight="bold" font-family="'Helvetica Neue', Helvetica, Arial-Unicode, Arial, Sans-serif">Created by Ali Nur Rohman</text><text x="0" y="120" fill="#000000" font-size="5px" font-weight="bold" font-family="'Helvetica Neue', Helvetica, Arial-Unicode, Arial, Sans-serif">from the Noun Project</text></svg>