<svg xmlns="http://www.w3.org/2000/svg" xmlns:xlink="http://www.w3.org/1999/xlink" version="1.1" x="0px" y="0px" viewBox="0 0 512 640" style="enable-background:new 0 0 512 512;" xml:space="preserve"><style type="text/css">
	.st0{fill-rule:evenodd;clip-rule:evenodd;}
</style><path class="st0" d="M362.8,404.1c1.2-0.3,2.4-0.5,3.5-0.5v0c3.5,0,7.1,1.3,9.8,4l25.7,25.7c5.4,5.4,5.4,14.2,0,19.6l-16.2,16.2  c-5.4,5.4-14.2,5.4-19.6,0l-25.7-25.7c-3.6-3.6-4.8-8.9-3.5-13.6l-9.1-9.1c-9.5,5.8-20.1,9.4-31.2,10.6v13c0,1.9-0.7,3.6-2.1,5  L247.8,496c-2.2,2.2-4.9,2-4.9,2H77.3c-3.9,0-7-3.1-7-7V196c0-3.9,3.1-7,7-7H89v-1.5c0-15.1,18.4-22.9,29.2-12.1  c3.1,3.1,5,7.4,5,12.1v1.5H194c15.8-29.9,46.6-49.7,80.9-50.8c-35.6-23.7-40.8-74-10.4-104.4c26.4-26.4,69.4-26.4,95.8,0  c30.3,30.3,25.1,80.7-10.4,104.3c50.9,1.7,91.9,43.9,91.9,95v39.2c0,3.9-3.1,7-7,7H298.8c54.4,7.6,83.1,68.7,54.7,115.5L362.8,404.1  z M288,313c-23.3,0-42.2,18.9-42.2,42.2s18.9,42.2,42.2,42.2s42.2-18.9,42.2-42.2S311.3,313,288,313L288,313z M282.4,431.7  c-43.1-3.1-75.3-41.4-70.6-84.8h-81.8c-3.9,0-7-3.1-7-7V233.4c0-3.9,3.1-7,7-7h106.5c3.9,0,7,3.1,7,7v59.4  c11.1-7.9,24.4-12.9,38.8-14V203H123.3c0,8.1,1,14.6-5,20.6c-10.8,10.8-29.2,3-29.2-12.1V203h-4.8v281h151.6v-39.5c0-3.9,3.1-7,7-7  h39.5V431.7z M106.2,184.4c-1.7,0-3.1,1.4-3.1,3.1v1.5h6.2c0-1.4,0.2-2.6-0.9-3.7C107.8,184.7,107,184.4,106.2,184.4L106.2,184.4z   M103,203v8.5c0,4.1,6.2,4.1,6.2,0V203H103z M103.4,375.9c-3.9,0-7-3.1-7-7c0-3.9,3.1-7,7-7h29c3.9,0,7,3.1,7,7c0,3.9-3.1,7-7,7  H103.4z M183.3,266.3c-10.8,0-16.2,13.1-8.6,20.7c7.6,7.6,20.7,2.2,20.7-8.6C195.5,271.7,190,266.3,183.3,266.3L183.3,266.3z   M211.2,332.9v-9.1c0-9.9-8.1-18.1-18.1-18.1h-19.5c-9.9,0-18.1,8.1-18.1,18.1v9.1H211.2z M121.1,457.1c-3.9,0-7-3.1-7-7  c0-3.9,3.1-7,7-7h68.6c3.9,0,7,3.1,7,7c0,3.9-3.1,7-7,7H121.1z M121.1,403c-3.9,0-7-3.1-7-7c0-3.9,3.1-7,7-7h68.6c3.9,0,7,3.1,7,7  c0,3.9-3.1,7-7,7H121.1z M121.1,430c-3.9,0-7-3.1-7-7c0-3.9,3.1-7,7-7h29c3.9,0,7,3.1,7,7c0,3.9-3.1,7-7,7H121.1z M312.4,28  c-29.7,0-53.7,24.1-53.7,53.7c0,29.7,24.1,53.7,53.7,53.7s53.7-24,53.7-53.7C366.1,52.1,342.1,28,312.4,28L312.4,28z"/><text x="0" y="527" fill="#000000" font-size="5px" font-weight="bold" font-family="'Helvetica Neue', Helvetica, Arial-Unicode, Arial, Sans-serif">Created by afian roc</text><text x="0" y="532" fill="#000000" font-size="5px" font-weight="bold" font-family="'Helvetica Neue', Helvetica, Arial-Unicode, Arial, Sans-serif">from the Noun Project</text></svg>